# xmcd
#
# Track frame offsets: 
#        150
#        16716
#        33300
#        51832
#        72169
#        80978
#        101967
#        115176
#        143778
#        170850
#
# Disc length: 2739 seconds
#
# Revision: 0
# Processed by: cddbd v1.5.2PL0 Copyright (c) Steve Scherf et al.
# Submitted via: ExactAudioCopy v1.0b3
#
DISCID=8b0ab10a
DTITLE=Santiago Vázquez - Santiago Vázquez
DYEAR=2014
DGENRE=Latin
TTITLE0=Cuerpo de Luz
TTITLE1=A Mi Lado
TTITLE2=Si No Viste
TTITLE3=Tu Color
TTITLE4=Rozemblat
TTITLE5=Boca Colorada
TTITLE6=Ella
TTITLE7=Último Baile Infinito
TTITLE8=Obediencia
TTITLE9=Los Antiguos Marineros
EXTD=
EXTT0=
EXTT1=
EXTT2=
EXTT3=
EXTT4=
EXTT5=
EXTT6=
EXTT7=
EXTT8=
EXTT9=
PLAYORDER=
